<svg width="151" height="32" viewBox="0 0 151 32" fill="none" xmlns="http://www.w3.org/2000/svg">
<path d="M26.095 31.9999H16.9941V22.883C16.9941 16.866 22.0089 11.9429 28.1381 11.9429H37.2389V21.0597C37.2389 27.0768 32.2242 31.9999 26.095 31.9999Z" fill="#6E94E8"/>
<path d="M23.0307 25.8006H8.35793C3.71464 25.8006 0 22.1538 0 17.5954V8.20513C0 3.64672 3.71464 0 8.35793 0H23.1236C27.7669 0 31.4816 3.64672 31.4816 8.20513V17.6866C31.3887 22.1538 27.674 25.8006 23.0307 25.8006Z" fill="#034EA2"/>
<path d="M23.9598 20.604C24.9342 20.604 25.7242 19.8285 25.7242 18.8718C25.7242 17.9152 24.9342 17.1396 23.9598 17.1396C22.9853 17.1396 22.1953 17.9152 22.1953 18.8718C22.1953 19.8285 22.9853 20.604 23.9598 20.604Z" fill="white"/>
<path d="M45.2252 17.1394C44.4823 16.8659 43.8323 16.41 43.3679 15.7718C42.9036 15.1337 42.625 14.4043 42.625 13.5838H46.061C46.1539 14.0397 46.2468 14.4043 46.6182 14.6778C46.8968 14.9513 47.2683 15.0425 47.7326 15.0425C48.197 15.0425 48.5684 14.9513 48.847 14.6778C49.1256 14.4955 49.2185 14.1308 49.2185 13.7662C49.2185 13.4015 49.1256 13.2191 48.847 12.9456C48.6613 12.7633 48.3827 12.581 48.0112 12.3986C47.7326 12.3075 47.2683 12.1251 46.6182 11.9428C45.7824 11.6693 45.0395 11.3958 44.4823 11.1223C43.9251 10.8488 43.4608 10.4841 43.0893 9.93709C42.9036 9.57242 42.7179 8.93424 42.7179 8.11373C42.7179 6.92854 43.1822 5.92569 44.1109 5.28752C45.0395 4.64934 46.1539 4.28467 47.6398 4.28467C49.1256 4.28467 50.3329 4.64934 51.1687 5.28752C52.0045 5.92569 52.5617 6.92854 52.6545 8.2049H49.1256C49.1256 7.74906 48.9399 7.47555 48.6613 7.20205C48.3827 6.92854 48.0112 6.83737 47.5469 6.83737C47.1754 6.83737 46.804 6.92854 46.6182 7.11088C46.3396 7.29322 46.2468 7.56672 46.2468 8.02256C46.2468 8.4784 46.4325 8.7519 46.8968 9.02541C47.2683 9.29891 47.9184 9.48125 48.7542 9.75475C49.5899 10.0283 50.3329 10.3018 50.8901 10.5753C51.4473 10.8488 51.9116 11.2134 52.2831 11.6693C52.6545 12.1251 52.8403 12.7633 52.8403 13.5838C52.8403 14.3132 52.6545 15.0425 52.2831 15.5895C51.9116 16.2277 51.3544 16.6835 50.6115 17.0482C49.8685 17.4129 49.0328 17.5952 48.0112 17.5952C46.8968 17.5952 46.061 17.4129 45.2252 17.1394Z" fill="#034EA2"/>
<path d="M54.6982 9.39025C55.0697 8.56974 55.6269 7.93156 56.3698 7.56689C57.1128 7.11105 57.8557 6.92871 58.7843 6.92871C59.5273 6.92871 60.1773 7.11105 60.7345 7.38455C61.2917 7.65806 61.7561 8.1139 62.0347 8.56974V7.01988H65.285V17.413H62.0347V15.9544C61.7561 16.4102 61.2917 16.866 60.7345 17.1395C60.1773 17.413 59.5273 17.5954 58.7843 17.5954C57.9485 17.5954 57.1128 17.413 56.4627 16.9572C55.8126 16.5014 55.1626 15.8632 54.7911 15.0427C54.4196 14.2222 54.141 13.3105 54.141 12.2165C54.0482 11.2136 54.3268 10.2108 54.6982 9.39025ZM61.3846 10.3931C60.9203 9.93726 60.3631 9.66375 59.713 9.66375C59.0629 9.66375 58.5057 9.84609 58.0414 10.3019C57.5771 10.7578 57.3914 11.3959 57.3914 12.2165C57.3914 13.037 57.5771 13.6751 58.0414 14.131C58.5057 14.5868 59.0629 14.8603 59.713 14.8603C60.3631 14.8603 60.9203 14.5868 61.3846 14.131C61.8489 13.6751 62.0347 13.037 62.0347 12.2165C62.0347 11.4871 61.7561 10.8489 61.3846 10.3931Z" fill="#034EA2"/>
<path d="M72.8997 9.66378H71.1353V17.4131H67.885V9.66378H66.6777V7.0199H67.885V6.7464C67.885 5.47005 68.2565 4.4672 68.9994 3.82902C69.7423 3.19084 70.8567 2.82617 72.2497 2.82617C72.5283 2.82617 72.6212 2.82617 72.8069 2.82617V5.56121C72.1568 5.56121 71.7854 5.65238 71.5068 5.83472C71.2282 6.01706 71.1353 6.38173 71.1353 6.92874V7.0199H72.8997V9.66378Z" fill="#034EA2"/>
<path d="M84.322 13.0371H76.9856C77.0784 13.6753 77.2642 14.1311 77.6356 14.4958C78.0071 14.8605 78.4714 15.0428 79.0286 15.0428C79.8644 15.0428 80.4216 14.6781 80.7002 14.04H84.1362C83.9505 14.6781 83.6719 15.3163 83.2076 15.8633C82.7433 16.4103 82.1861 16.8662 81.4431 17.1397C80.7931 17.4132 79.9573 17.5955 79.1215 17.5955C78.1 17.5955 77.1713 17.4132 76.3355 16.9573C75.4997 16.5015 74.8496 15.8633 74.4782 15.134C74.1067 14.4046 73.8281 13.4018 73.8281 12.3078C73.8281 11.2138 74.0139 10.3021 74.4782 9.48156C74.9425 8.66104 75.5926 8.02287 76.3355 7.6582C77.1713 7.20236 78.1 7.02002 79.1215 7.02002C80.143 7.02002 81.0717 7.20236 81.8146 7.6582C82.6504 8.11404 83.2076 8.66104 83.6719 9.48156C84.1362 10.3021 84.322 11.2138 84.322 12.2166C84.4148 12.3989 84.4148 12.6724 84.322 13.0371ZM81.0717 11.2138C81.0717 10.6667 80.8859 10.2109 80.5145 9.9374C80.143 9.57273 79.6787 9.48156 79.1215 9.48156C78.5643 9.48156 78.1 9.66389 77.7285 9.9374C77.357 10.2109 77.0784 10.6667 77.0784 11.3049H81.0717V11.2138Z" fill="#034EA2"/>
<path d="M101.687 4.37598V17.413H98.4369V12.0341H93.4222V17.413H90.1719V4.37598H93.4222V9.48139H98.4369V4.37598H101.687Z" fill="#034EA2"/>
<path d="M104.01 9.39025C104.382 8.56974 104.939 7.93156 105.682 7.56689C106.425 7.11105 107.168 6.92871 108.096 6.92871C108.839 6.92871 109.489 7.11105 110.046 7.38455C110.604 7.65806 111.068 8.1139 111.347 8.56974V7.01988H114.597V17.413H111.347V15.9544C111.068 16.4102 110.604 16.866 110.046 17.1395C109.489 17.413 108.839 17.5954 108.096 17.5954C107.26 17.5954 106.425 17.413 105.775 16.9572C105.032 16.5014 104.474 15.8632 104.103 15.0427C103.731 14.2222 103.453 13.3105 103.453 12.2165C103.36 11.2136 103.546 10.2108 104.01 9.39025ZM110.604 10.3931C110.139 9.93726 109.582 9.66375 108.932 9.66375C108.282 9.66375 107.725 9.84609 107.26 10.3019C106.796 10.7578 106.61 11.3959 106.61 12.2165C106.61 13.037 106.796 13.6751 107.26 14.131C107.725 14.5868 108.282 14.8603 108.932 14.8603C109.582 14.8603 110.139 14.5868 110.604 14.131C111.068 13.6751 111.254 13.037 111.254 12.2165C111.254 11.4871 111.068 10.8489 110.604 10.3931Z" fill="#034EA2"/>
<path d="M121.653 14.4955L123.975 7.11084H127.411L123.696 17.504H119.703L115.988 7.11084H119.424L121.653 14.4955Z" fill="#034EA2"/>
<path d="M138.648 13.0371H131.312C131.405 13.6753 131.59 14.1311 131.962 14.4958C132.333 14.8605 132.798 15.0428 133.355 15.0428C134.191 15.0428 134.748 14.6781 135.026 14.04H138.462C138.277 14.6781 137.998 15.3163 137.534 15.8633C137.069 16.4103 136.512 16.8662 135.769 17.1397C135.119 17.4132 134.283 17.5955 133.448 17.5955C132.426 17.5955 131.497 17.4132 130.662 16.9573C129.826 16.5015 129.176 15.8633 128.804 15.134C128.34 14.3135 128.154 13.4018 128.154 12.3078C128.154 11.2138 128.34 10.3021 128.804 9.48156C129.269 8.66104 129.919 8.02287 130.662 7.6582C131.497 7.20236 132.426 7.02002 133.448 7.02002C134.469 7.02002 135.398 7.20236 136.141 7.6582C136.977 8.11404 137.534 8.66104 137.998 9.48156C138.462 10.3021 138.648 11.2138 138.648 12.2166C138.741 12.3989 138.741 12.6724 138.648 13.0371ZM135.398 11.2138C135.398 10.6667 135.212 10.2109 134.841 9.9374C134.469 9.57273 134.005 9.48156 133.448 9.48156C132.89 9.48156 132.426 9.66389 132.055 9.9374C131.683 10.2109 131.405 10.6667 131.405 11.3049H135.398V11.2138Z" fill="#034EA2"/>
<path d="M149.884 8.1139C150.627 8.93441 150.999 10.0284 150.999 11.3959V17.5042H147.749V11.8518C147.749 11.1224 147.563 10.5754 147.191 10.2108C146.82 9.84609 146.356 9.66375 145.705 9.66375C145.055 9.66375 144.591 9.84609 144.22 10.2108C143.848 10.5754 143.662 11.1224 143.662 11.8518V17.5042H140.412V7.01988H143.662V8.3874C144.034 7.93156 144.405 7.56689 144.963 7.29338C145.52 7.01988 146.17 6.92871 146.82 6.92871C148.12 6.92871 149.142 7.38455 149.884 8.1139Z" fill="#034EA2"/>
<path opacity="0.61" d="M136.327 22.2451V30.8149H134.934V24.9802L132.24 30.8149H131.219L128.526 24.9802V30.8149H127.133V22.2451H128.712L131.776 28.9916L134.841 22.2451H136.327Z" fill="#6E94E8"/>
<path opacity="0.61" d="M143.291 22.2451V23.4303H139.577V25.983H142.455V27.1682H139.577V30.9061H138.184V22.3363H143.291V22.2451Z" fill="#6E94E8"/>
<path opacity="0.61" d="M150.441 27.1682C150.813 27.5329 150.906 27.9887 150.906 28.5357C150.906 28.9916 150.813 29.3562 150.534 29.7209C150.349 30.0856 149.977 30.3591 149.513 30.5414C149.048 30.7237 148.584 30.8149 148.027 30.8149H144.498V22.2451H147.841C148.398 22.2451 148.956 22.3363 149.327 22.5186C149.791 22.701 150.07 22.9745 150.256 23.3391C150.441 23.7038 150.627 24.0685 150.627 24.4331C150.627 24.889 150.534 25.3448 150.256 25.7095C149.977 26.0742 149.606 26.2565 149.141 26.4388C149.791 26.53 150.163 26.7123 150.441 27.1682ZM146.077 25.8918H147.841C148.306 25.8918 148.677 25.8007 148.956 25.6183C149.234 25.436 149.327 25.0713 149.327 24.7067C149.327 24.342 149.234 23.9773 148.956 23.795C148.677 23.6126 148.306 23.4303 147.841 23.4303H146.077V25.8918ZM149.141 29.3562C149.42 29.0827 149.513 28.8092 149.513 28.3534C149.513 27.8975 149.327 27.624 149.048 27.3505C148.77 27.077 148.398 26.9859 147.841 26.9859H145.984V29.6297H147.934C148.491 29.6297 148.863 29.5386 149.141 29.3562Z" fill="#6E94E8"/>
<path d="M124.997 30.6326H43.1822C42.9036 30.6326 42.625 30.3591 42.625 30.0856C42.625 29.8121 42.9036 29.5386 43.1822 29.5386H124.997C125.276 29.5386 125.554 29.8121 125.554 30.0856C125.554 30.3591 125.276 30.6326 124.997 30.6326Z" fill="#6E94E8"/>
</svg>
